<svg width="1032" height="794" viewBox="0 0 1032 794" fill="none" xmlns="http://www.w3.org/2000/svg">
<g id="Vector" opacity="0.5" filter="url(#filter0_d)">
<path d="M179.73 116.43C174.25 123.08 172.14 132.43 169.78 141.22C150.78 212.06 103.96 269.04 50.64 309.74C28.06 326.98 0.570013 350.1 5.51001 381.01C8.17001 397.61 19.84 409.83 28.51 423.35C46.7 451.66 52.6 490.14 43.93 524.03C34.07 562.59 6.51001 598.57 15.04 637.56C20.3 661.56 38.16 678.64 55.33 693.32C82.1167 716.207 109.757 737.647 138.25 757.64C157.35 771.04 177.67 784.08 199.93 785.78C219.53 787.28 238.73 779.83 257.34 772.48C273.6 766.05 290.27 759.36 303.4 746.48C311.97 738.07 318.8 727.22 328.32 720.34C350.68 704.18 379.4 714.42 405.04 721.34C465.54 737.58 530.29 731.65 587.86 704.6C676.17 663.1 743.48 575.95 829.86 529.19C867 509.08 907.4 496.6 941.79 470.7C961.165 455.953 977.815 437.936 990.99 417.46C1016.99 377.35 1031.05 326.21 1026.99 276.15C1022.93 226.09 1000.18 177.85 964.45 149.59C926.2 119.34 877.89 113.69 834.37 95.53C789.43 76.77 749.45 44.53 704.94 24.4C668.924 8.15665 629.728 0.18284 590.228 1.06361C550.728 1.94439 511.926 11.6574 476.67 29.49C428.23 53.99 379.13 111.15 325.18 115.49C286.74 118.49 209.75 80.01 179.73 116.43Z" fill="url(#paint0_linear)"/>
</g>
<g id="Group 2">
<path id="Vector_2" d="M225.23 717.99L218.96 620.05L218.83 619.84L212.51 622.04L183.43 706.89L137.18 674.1L210.85 620.69L210.92 620.48L211.34 620.33L216.09 616.88L138.85 573.57L119.93 594.37L122.93 613.87L211.75 615.49V617.49L121.27 615.87L117.85 593.73L143.75 565.27L182.5 520.07L183.19 521.94L191.39 512.94L221.85 518.4V517.19L223.85 517.25V518.76L269.21 526.88L226.92 611.49L220.75 615.96V616.46V617.02L318.55 582.94L306.94 674.15L223.94 621.28L221.02 619.64L269.96 698.52L225.23 717.99ZM221.23 623.65L227.08 715.03L267.13 697.65L221.23 623.65ZM140.65 674.08L182.44 703.71L209.78 623.97L140.65 674.08ZM222.97 618.42L225.06 619.59L305.41 670.79L316.21 585.92L222.97 618.42ZM215.87 611.22L218.38 615.27L218.82 614.95L221.82 520.42L192.08 515.1L183.92 524.1L215.87 611.22ZM140.45 572.16L215.29 614.16L213.99 612.03L182.41 525.76L145.22 566.63L140.45 572.16ZM223.85 520.77L220.85 613.49L225.37 610.21L266.28 528.39L223.85 520.77Z" fill="#535461"/>
<path id="Vector_3" d="M334.92 590.95C330.909 573.131 322.79 556.495 311.21 542.37C306.911 537.121 302.171 532.25 297.04 527.81C277.314 510.779 252.491 500.779 226.467 499.381C200.443 497.983 174.692 505.265 153.254 520.085C131.816 534.904 115.906 556.422 108.02 581.262C100.134 606.102 100.719 632.857 109.683 657.328C118.647 681.799 135.482 702.601 157.547 716.47C179.612 730.339 205.657 736.488 231.595 733.954C257.533 731.42 281.895 720.345 300.858 702.468C319.822 684.591 332.312 660.923 336.37 635.18C337.314 629.119 337.789 622.994 337.79 616.86C337.797 608.144 336.834 599.454 334.92 590.95ZM219.73 705.3C201.498 705.281 183.714 699.647 168.797 689.164C153.879 678.682 142.552 663.859 136.356 646.712C130.16 629.565 129.395 610.926 134.165 593.329C138.935 575.732 149.009 560.031 163.018 548.361C177.026 536.692 194.288 529.619 212.457 528.106C230.627 526.593 248.821 530.712 264.567 539.904C280.312 549.096 292.845 562.914 300.46 579.48C308.076 596.045 310.405 614.554 307.13 632.49C303.38 652.933 292.58 671.414 276.611 684.718C260.642 698.021 240.514 705.304 219.73 705.3V705.3Z" fill="#535461"/>
<path id="Vector_4" d="M219.73 629.27C226.805 629.27 232.54 623.535 232.54 616.46C232.54 609.385 226.805 603.65 219.73 603.65C212.655 603.65 206.92 609.385 206.92 616.46C206.92 623.535 212.655 629.27 219.73 629.27Z" fill="#535461"/>
</g>
<g id="Group 1">
<path id="Vector_5" d="M651.42 718.39L645.16 620.49L645.03 620.28L638.71 622.48L609.62 707.29L563.37 674.49L637.06 621.08L637.13 620.87L637.55 620.72L642.3 617.27L565.06 573.96L546.13 594.76L549.13 614.26L637.93 615.84V617.84L547.45 616.22L544.05 594.11L569.94 565.66L608.66 520.49L609.35 522.36L617.55 513.36L648.09 518.83V517.62L650.09 517.68V519.19L695.45 527.31L653.12 611.96L646.95 616.43V616.93V617.49L744.76 583.41L733.15 674.62L650.15 621.75L647.23 620.11L696.17 699L651.42 718.39ZM647.42 624.05L653.27 715.43L693.32 698.05L647.42 624.05ZM566.85 674.49L608.64 704.12L635.98 624.38L566.85 674.49ZM649.17 618.83L651.26 620L731.61 671.2L742.41 586.33L649.17 618.83ZM642.07 611.63L644.58 615.68L645.02 615.36L648.02 520.83L618.28 515.49L610.12 524.49L642.07 611.63ZM566.68 572.58L641.52 614.58L640.22 612.45L608.64 526.18L571.44 567.06L566.68 572.58ZM650.05 521.19L647.05 613.88L651.57 610.6L692.48 528.78L650.05 521.19Z" fill="#535461"/>
<path id="Vector_6" d="M646.33 499.61C635.717 499.598 625.15 501.024 614.92 503.85C609.644 505.305 604.477 507.133 599.46 509.32C572.73 520.907 551.247 541.997 539.167 568.508C527.087 595.019 525.269 625.069 534.065 652.843C542.86 680.618 561.644 704.143 586.782 718.869C611.921 733.594 641.627 738.473 670.155 732.562C698.682 726.65 724.004 710.369 741.221 686.867C758.438 663.365 766.327 634.312 763.362 605.33C760.396 576.348 746.787 549.495 725.168 529.966C703.548 510.438 675.454 499.622 646.32 499.61H646.33ZM645.93 705.7C625.649 705.692 605.981 698.746 590.192 686.017C574.404 673.288 563.445 655.541 559.135 635.723C554.825 615.905 557.424 595.209 566.501 577.073C575.577 558.936 590.584 544.45 609.03 536.02C613.722 533.872 618.594 532.142 623.59 530.85C635.802 527.68 648.549 527.147 660.984 529.287C673.418 531.427 685.253 536.191 695.703 543.261C706.153 550.332 714.977 559.547 721.588 570.293C728.199 581.039 732.446 593.069 734.046 605.585C735.646 618.1 734.562 630.812 730.866 642.875C727.17 654.939 720.948 666.077 712.613 675.548C704.277 685.02 694.02 692.608 682.524 697.806C671.028 703.005 658.557 705.696 645.94 705.7H645.93Z" fill="#535461"/>
<path id="Vector_7" d="M645.93 629.67C653.005 629.67 658.74 623.935 658.74 616.86C658.74 609.785 653.005 604.05 645.93 604.05C638.855 604.05 633.12 609.785 633.12 616.86C633.12 623.935 638.855 629.67 645.93 629.67Z" fill="#535461"/>
</g>
<g id="Group 3">
<path id="Vector_8" d="M357 555.303L314.293 513.159L300.947 526.683L343.654 568.827L357 555.303Z" fill="#6C63FF"/>
<path id="Vector_9" d="M324.48 492.99C324.48 492.99 349.27 479.91 358.85 471.49C364.617 466.444 370.818 461.917 377.38 457.96L408.48 439.03L473.48 434.03L476.48 445.03C476.48 445.03 481.48 461.03 431.48 475.03C381.48 489.03 356.48 511.03 356.48 511.03C356.48 511.03 324.48 521.99 324.48 492.99Z" fill="#DB8B8B"/>
<path id="Vector_10" opacity="0.1" d="M359.13 508.86C357.36 510.21 356.48 510.99 356.48 510.99C356.48 510.99 324.48 521.99 324.48 492.99C324.48 492.99 326.03 492.17 328.48 490.8C330.955 494.831 334.423 498.16 338.551 500.469C342.679 502.778 347.33 503.99 352.06 503.99H355.45L359.13 508.86Z" fill="black"/>
<path id="Vector_11" d="M324.98 486.49L298.48 503.99L376.08 568.99C376.08 568.99 387.48 561.99 381.48 553.99C381.48 553.99 361.48 536.99 360.48 512.99L354.48 504.99H351.09C345.358 504.991 339.767 503.211 335.089 499.897C330.412 496.583 326.88 491.898 324.98 486.49V486.49Z" fill="#ABB1D1"/>
<path id="Vector_12" opacity="0.1" d="M475.54 450.55C459.54 442.82 420.48 441.99 420.48 441.99L420.06 438.1L473.48 433.99L476.48 444.99C476.48 444.99 477.15 447.14 475.54 450.55Z" fill="black"/>
<path id="Vector_13" d="M420.48 439.99C420.48 439.99 467.48 440.99 479.48 450.99L473.48 329.99H408.48L420.48 439.99Z" fill="#ABB1D1"/>
<path id="Vector_14" opacity="0.05" d="M420.48 439.49C420.48 439.49 467.48 440.49 479.48 450.49L473.48 329.49H408.48L420.48 439.49Z" fill="black"/>
<path id="Vector_15" d="M458.24 365.95C458.24 365.95 575.89 361.95 578.29 377.16C580.69 392.37 460.64 385.96 460.64 385.96C460.64 385.96 451.04 376.35 458.24 365.95Z" fill="#535461"/>
<path id="Vector_16" d="M363 426.78H342.19V607.66H363V426.78Z" fill="#6C63FF"/>
<path id="Vector_17" opacity="0.1" d="M363 426.77V440.7C356.08 441.6 349 442.17 342.19 442.39V426.77H363Z" fill="black"/>
<path id="Vector_18" d="M361.44 411.78C358.52 411.554 355.616 411.164 352.74 410.61C341.46 408.45 313.02 403.92 305.37 411.61C295.77 421.21 298.97 438.02 324.58 440.42C350.19 442.82 394.21 436.42 403.02 426.81C403.02 426.77 387.09 413.75 361.44 411.78Z" fill="#535461"/>
<path id="Vector_19" d="M357.4 476.4L575.9 408.37L583.1 425.18L359 502.01L357.4 476.4Z" fill="#6C63FF"/>
<path id="Vector_20" d="M422.23 583.65L579.9 428.38L588.7 441.18L438.23 598.05L422.23 583.65Z" fill="#6C63FF"/>
<path id="Vector_21" opacity="0.1" d="M623.58 530.85C618.584 532.142 613.712 533.872 609.02 536.02L599.46 509.31C604.477 507.123 609.644 505.295 614.92 503.84L623.58 530.85Z" fill="black"/>
<path id="Vector_22" d="M650.33 609.26L639.13 615.66L560.99 397.33L557.49 387.56L575.9 377.15L580.51 391.53L650.33 609.26Z" fill="#6C63FF"/>
<path id="Vector_23" opacity="0.1" d="M580.51 391.53L560.99 397.33L557.49 387.56L575.9 377.15L580.51 391.53Z" fill="black"/>
<path id="Vector_24" d="M461.44 408.37L571.09 370.75C571.09 370.75 590.3 373.15 583.09 389.16L472.65 421.97C472.65 421.97 455.85 423.57 461.44 408.37Z" fill="#535461"/>
<path id="Vector_25" opacity="0.1" d="M337.79 616.86C337.789 622.994 337.314 629.119 336.37 635.18C326.77 634.49 316.85 633.49 307.13 632.49C309.289 620.599 309.021 608.394 306.34 596.61C315.81 594.61 325.48 592.7 334.92 590.97C336.833 599.467 337.795 608.15 337.79 616.86V616.86Z" fill="black"/>
<path id="Vector_26" opacity="0.1" d="M363 586.38V607.65H342.19V589.65C349.39 588.4 356.39 587.29 363 586.38Z" fill="black"/>
<path id="Vector_27" d="M228.54 616.49C228.54 616.49 396.62 572.49 410.22 589.28C423.82 606.07 438.23 628.49 395.85 636.49C353.47 644.49 225.37 622.88 225.37 622.88L228.54 616.49Z" fill="#6C63FF"/>
<path id="Vector_28" opacity="0.1" d="M311.21 542.37L289.85 561.92C286.067 557.064 281.791 552.614 277.09 548.64L297.03 527.81C302.164 532.249 306.908 537.12 311.21 542.37V542.37Z" fill="black"/>
<path id="Vector_29" d="M222.94 607.66L348.59 476.4L352.6 506.81L229.34 619.66L222.94 607.66Z" fill="#6C63FF"/>
<path id="Vector_30" d="M419.83 629.27C433.974 629.27 445.44 617.804 445.44 603.66C445.44 589.516 433.974 578.05 419.83 578.05C405.686 578.05 394.22 589.516 394.22 603.66C394.22 617.804 405.686 629.27 419.83 629.27Z" fill="#535461"/>
<path id="Vector_31" d="M412.992 601.736L412.984 601.742C409.977 603.991 409.362 608.253 411.611 611.26L431.937 638.441C434.186 641.448 438.448 642.063 441.455 639.814L441.463 639.808C444.471 637.559 445.085 633.297 442.836 630.29L422.51 603.109C420.261 600.102 416 599.487 412.992 601.736Z" fill="#6C63FF"/>
<path id="Vector_32" d="M535.48 247.99L533.1 278.1C532.826 281.914 532.876 285.744 533.25 289.55C533.56 292.92 533.25 298.82 529.95 307.82C525.713 319.317 523.523 331.467 523.48 343.72V377.99L500.48 373.99C500.48 373.99 501.48 325.99 497.48 317.99C493.48 309.99 500.48 238.99 500.48 238.99L535.48 247.99Z" fill="#DB8B8B"/>
<path id="Vector_33" d="M421.5 477.99L412.85 527.19C411.759 533.759 410.086 540.218 407.85 546.49C402.78 560.35 406.02 579.78 408.48 590.38C409.57 595.06 410.48 598.02 410.48 598.02L384.48 612.02L376.48 606.02V602.02L375.48 513.02C369.48 499.02 371.48 478.02 375.48 470.02C376.617 467.392 377.417 464.63 377.86 461.8C379.86 451.08 380.48 436.02 380.48 436.02C380.48 436.02 396.48 409.02 415.48 427.02C422.48 433.65 425.14 442.32 425.7 450.62C426.68 464.83 421.5 477.99 421.5 477.99Z" fill="#DB8B8B"/>
<path id="Vector_34" opacity="0.1" d="M425.7 450.59C411.83 458.83 387.7 461.16 377.86 461.77C379.86 451.05 380.48 435.99 380.48 435.99C380.48 435.99 396.48 408.99 415.48 426.99C422.48 433.62 425.14 442.29 425.7 450.59Z" fill="black"/>
<path id="Vector_35" d="M459.48 425.99C448.846 431.653 438.797 438.352 429.48 445.99C413.48 458.99 373.48 459.99 373.48 459.99V444.99C374.48 426.99 357.48 406.99 334.48 350.99C319.79 315.23 323.86 294.99 328.72 284.99C331.48 279.34 334.48 276.99 334.48 276.99L459.48 300.99L463.95 314.39L473.48 342.99C473.48 342.99 438.48 344.99 432.48 347.99C426.48 350.99 430.48 377.99 430.48 377.99C424.48 405.99 459.48 425.99 459.48 425.99Z" fill="#ABB1D1"/>
<path id="Vector_36" opacity="0.1" d="M535.48 247.99L534.3 262.91C516.9 267.91 504.48 251.99 504.48 251.99C502.665 252.477 500.882 253.074 499.14 253.78C499.89 245.03 500.48 238.99 500.48 238.99L535.48 247.99Z" fill="black"/>
<path id="Vector_37" opacity="0.1" d="M463.95 314.39C463.48 319.06 463.48 321.99 463.48 321.99C463.48 321.99 440.48 340.99 401.48 311.99C362.48 282.99 327.48 290.99 327.48 290.99C327.48 290.99 327.89 288.67 328.72 284.99C331.48 279.34 334.48 276.99 334.48 276.99L459.48 300.99L463.95 314.39Z" fill="black"/>
<path id="Vector_38" d="M545.48 213C542.87 233.35 542 259 542 259C519 277 501 254 501 254C479.28 259.83 469.07 278.84 464.26 295.43C461.684 304.404 460.252 313.667 460 323C460 323 453.92 328 442.72 329C432.13 329.89 416.95 327.13 398 313C359 284 324 292 324 292C324 292 331 252 347 240C363 228 375 213 395 167C415 121 456 132 456 132C456 132 458 123 495 132C504.012 134.362 512.354 138.781 519.37 144.91C539.16 161.55 548.76 187.36 545.48 213Z" fill="white"/>
<path id="Vector_39" d="M511.85 150.49C511.8 151.82 511.69 153.3 511.51 154.95C509.51 172.95 507.51 170.95 485.51 174.95C471.83 177.44 464.72 166.01 461.3 157.01C460.062 153.75 459.128 150.382 458.51 146.95L506.51 138.95C506.51 138.95 512.26 137.34 511.85 150.49Z" fill="#DB8B8B"/>
<path id="Vector_40" d="M397.48 218.99L419.48 271.99C419.48 271.99 421.48 287.99 431.48 296.99C431.48 296.99 446.48 312.99 448.48 321.99C450.48 330.99 478.48 354.99 478.48 354.99C478.48 354.99 504.48 378.99 506.48 387.99C506.48 387.99 530.48 394.99 527.48 408.99C527.48 408.99 545.48 390.99 527.48 373.99C509.48 356.99 485.48 321.99 485.48 321.99C485.48 321.99 471.48 284.99 458.48 273.99L454.48 262.99C454.48 262.99 460.48 230.99 440.48 215.99C420.48 200.99 397.48 218.99 397.48 218.99Z" fill="#DB8B8B"/>
<path id="Vector_41" opacity="0.1" d="M410.48 597.99L384.48 611.99L376.48 605.99V601.99C385.464 601.352 394.193 598.718 402.03 594.28C404.43 592.92 406.69 591.58 408.5 590.4C409.55 595.03 410.48 597.99 410.48 597.99Z" fill="black"/>
<path id="Vector_42" d="M440.48 174.99L454.48 229.99C454.48 229.99 411.48 236.99 402.48 229.99C393.48 222.99 376.48 220.99 376.48 220.99C376.48 220.99 394.48 168.99 404.48 162.99C414.48 156.99 440.48 174.99 440.48 174.99Z" fill="white"/>
<path id="Vector_43" opacity="0.1" d="M511.85 149.49C509.049 153.356 505.487 156.609 501.383 159.047C497.278 161.485 492.718 163.058 487.983 163.669C483.248 164.28 478.439 163.915 473.85 162.598C469.261 161.281 464.99 159.039 461.3 156.01C460.062 152.75 459.128 149.382 458.51 145.95L506.51 137.95C506.51 137.95 512.26 136.34 511.85 149.49Z" fill="black"/>
<path id="Vector_44" d="M518.48 127.99C518.48 137.273 514.793 146.175 508.229 152.739C501.665 159.303 492.763 162.99 483.48 162.99C474.197 162.99 465.295 159.303 458.731 152.739C452.168 146.175 448.48 137.273 448.48 127.99C448.48 127.41 448.48 126.83 448.48 126.25C448.711 116.967 452.62 108.157 459.346 101.756C466.073 95.3555 475.067 91.8893 484.35 92.12C493.633 92.3508 502.443 96.2595 508.844 102.986C515.245 109.713 518.711 118.707 518.48 127.99V127.99Z" fill="#DB8B8B"/>
<path id="hat" d="M424.624 106.927C426.754 113.607 436.984 113.817 442.234 118.737C444.964 121.297 446.234 125.077 449.234 127.357C453.404 130.537 459.424 129.837 464.734 129.077C475.424 127.557 486.904 126.647 496.544 131.257C499.964 132.887 503.034 135.167 506.604 136.497C510.174 137.827 514.604 137.987 517.504 135.627C519.824 133.737 520.674 130.627 522.774 128.547C524.404 126.907 526.674 125.987 528.534 124.547C532.614 121.467 534.374 116.447 535.534 111.647C537.934 101.767 538.624 91.1167 534.534 81.7467C530.444 72.3767 520.604 64.7467 509.864 65.2367C506.574 65.3867 503.364 66.2367 500.084 66.5967C491.534 67.4667 483.084 64.5967 474.504 64.1067C472.015 63.8039 469.49 64.1483 467.174 65.1067C465.427 66.0775 463.92 67.4273 462.764 69.0567C458.836 74.2021 456.146 80.1836 454.904 86.5367C453.904 91.3267 453.854 95.6667 447.984 96.4067C441.314 97.2867 420.114 92.7967 424.624 106.927Z" fill="#472727"/>
<path id="Vector_45" opacity="0.05" d="M354.98 235.49C354.98 235.49 380.98 242.49 388.98 260.49C396.98 278.49 418.62 281.78 418.62 281.78" fill="black"/>
<path id="Vector_46" d="M452.98 631.49H392.98V650.49H452.98V631.49Z" fill="#6C63FF"/>
<path id="Vector_47" d="M401.99 596.23C407.36 593.23 412.07 590.23 412.48 588.99C412.48 588.99 426.03 603.29 438.1 607.73C442.159 609.229 446.044 611.16 449.69 613.49C454.47 616.49 461.29 620.02 467.48 620.02C467.48 620.02 481.48 632.02 454.48 634.02C427.48 636.02 364.48 629.02 364.48 629.02L368.48 604.02C380.167 604.705 391.804 602 401.99 596.23Z" fill="#ABB1D1"/>
</g>
<defs>
<filter id="filter0_d" x="0.927948" y="0.997833" width="1030.75" height="792.976" filterUnits="userSpaceOnUse" color-interpolation-filters="sRGB">
<feFlood flood-opacity="0" result="BackgroundImageFix"/>
<feColorMatrix in="SourceAlpha" type="matrix" values="0 0 0 0 0 0 0 0 0 0 0 0 0 0 0 0 0 0 127 0"/>
<feOffset dy="4"/>
<feGaussianBlur stdDeviation="2"/>
<feColorMatrix type="matrix" values="0 0 0 0 0 0 0 0 0 0 0 0 0 0 0 0 0 0 0.25 0"/>
<feBlend mode="normal" in2="BackgroundImageFix" result="effect1_dropShadow"/>
<feBlend mode="normal" in="SourceGraphic" in2="effect1_dropShadow" result="shape"/>
</filter>
<linearGradient id="paint0_linear" x1="899" y1="126.5" x2="63" y2="676" gradientUnits="userSpaceOnUse">
<stop stop-color="#00C2FF"/>
<stop offset="1" stop-color="#BF09FF"/>
</linearGradient>
</defs>
</svg>
